<svg id="Capa_1" data-name="Capa 1" xmlns="http://www.w3.org/2000/svg" xmlns:xlink="http://www.w3.org/1999/xlink" viewBox="0 0 32 32"><defs><style>.cls-1,.cls-2{fill:none;}.cls-2{clip-rule:evenodd;}.cls-3{clip-path:url(#clip-path);}.cls-4{clip-path:url(#clip-path-2);}.cls-5{clip-path:url(#clip-path-3);}.cls-6{fill:#4f4e4e;}.cls-7{clip-path:url(#clip-path-4);}</style><clipPath id="clip-path"><rect class="cls-1" width="32" height="32"/></clipPath><clipPath id="clip-path-2"><path class="cls-2" d="M7.59,24.82h3.83V12.49H7.59ZM9.51,6.36A2.23,2.23,0,1,1,7.28,8.58,2.23,2.23,0,0,1,9.51,6.36Z"/></clipPath><clipPath id="clip-path-3"><rect class="cls-1" x="-208" y="-826" width="375" height="1333"/></clipPath><clipPath id="clip-path-4"><path class="cls-2" d="M13.83,12.64H17.5v1.68h.05a4,4,0,0,1,3.63-2c3.88,0,4.6,2.56,4.6,5.88V25H22V19c0-1.43,0-3.27-2-3.27s-2.3,1.56-2.3,3.17V25H13.83Z"/></clipPath></defs><title>linkedin</title><g class="cls-3"><g class="cls-4"><g class="cls-5"><rect class="cls-6" x="2.28" y="1.36" width="14.44" height="28.46"/></g></g><g class="cls-7"><g class="cls-5"><rect class="cls-6" x="8.83" y="7.33" width="21.95" height="22.64"/></g></g></g></svg>