<svg id="Capa_1" data-name="Capa 1" xmlns="http://www.w3.org/2000/svg" xmlns:xlink="http://www.w3.org/1999/xlink" viewBox="0 0 169.1 168"><defs><style>.cls-1,.cls-2{fill-rule:evenodd;}.cls-1{fill:url(#Degradado_sin_nombre);}.cls-2{fill:#fff;}</style><linearGradient id="Degradado_sin_nombre" x1="84.55" y1="-427.2" x2="84.55" y2="-595.2" gradientTransform="matrix(1, 0, 0, -1, 0, -427.2)" gradientUnits="userSpaceOnUse"><stop offset="0" stop-color="#e83c59"/><stop offset="1" stop-color="#e73351"/></linearGradient></defs><title>logo-min</title><path class="cls-1" d="M28,0H141.1a28,28,0,0,1,28,28h0V140a28,28,0,0,1-28,28H28A28,28,0,0,1,0,140V28A28.07,28.07,0,0,1,28,0Z"/><path id="SVGID-2" class="cls-2" d="M92.1,56.1a4.83,4.83,0,0,0,.1-1.2,7.7,7.7,0,0,0-15.4,0,4.83,4.83,0,0,0,.1,1.2l2.7,31.4a4.9,4.9,0,0,0,9.8,0Zm-7.4,54a7,7,0,1,0-.08,0ZM35.1,69.9c0-26.1,22.2-47.4,49.5-47.4s49.5,21.3,49.5,47.4c0,26.4-32,60.5-49.5,76.3C67,130.4,35.1,96.3,35.1,69.9Z"/></svg>