<svg id="Capa_1" data-name="Capa 1" xmlns="http://www.w3.org/2000/svg" viewBox="0 0 169.1 168"><defs><style>.cls-1{fill:#fff;fill-rule:evenodd;}</style></defs><title>logo-min-white</title><path class="cls-1" d="M141.1,0H28A28.07,28.07,0,0,0,0,28V140a28,28,0,0,0,28,28H141.1a28,28,0,0,0,28-28V28A28,28,0,0,0,141.1,0ZM84.6,146.2C67,130.4,35.1,96.3,35.1,69.9c0-26.1,22.2-47.4,49.5-47.4s49.5,21.3,49.5,47.4C134.1,96.3,102.1,130.4,84.6,146.2Z"/><path class="cls-1" d="M84.5,47.2a7.7,7.7,0,0,0-7.7,7.7,4.83,4.83,0,0,0,.1,1.2l2.7,31.4a4.9,4.9,0,0,0,9.8,0l2.7-31.4a4.83,4.83,0,0,0,.1-1.2A7.7,7.7,0,0,0,84.5,47.2Z"/><path class="cls-1" d="M84.62,96.1a7,7,0,0,0,0,14h.08a7,7,0,1,0-.08-14Z"/></svg>