<svg id="Capa_1" data-name="Capa 1" xmlns="http://www.w3.org/2000/svg" xmlns:xlink="http://www.w3.org/1999/xlink" viewBox="0 0 32 32"><defs><style>.cls-1,.cls-2{fill:none;}.cls-2{clip-rule:evenodd;}.cls-3{clip-path:url(#clip-path);}.cls-4{clip-path:url(#clip-path-2);}.cls-5{clip-path:url(#clip-path-3);}.cls-6{fill:#979797;}</style><clipPath id="clip-path"><rect class="cls-1" width="32" height="32"/></clipPath><clipPath id="clip-path-2"><path class="cls-2" d="M25.49,9.78a7.9,7.9,0,0,1-2.18.6A3.79,3.79,0,0,0,25,8.28a7.63,7.63,0,0,1-2.41.92A3.79,3.79,0,0,0,16,11.79a3.57,3.57,0,0,0,.1.87,10.75,10.75,0,0,1-7.82-4,3.79,3.79,0,0,0,1.17,5.07,3.84,3.84,0,0,1-1.72-.47v0a3.8,3.8,0,0,0,3,3.72,3.72,3.72,0,0,1-1,.14,4.18,4.18,0,0,1-.72-.07,3.8,3.8,0,0,0,3.55,2.63,7.62,7.62,0,0,1-4.71,1.63A6.84,6.84,0,0,1,7,21.32a10.78,10.78,0,0,0,16.61-9.09c0-.16,0-.32,0-.49a7.66,7.66,0,0,0,1.89-2"/></clipPath><clipPath id="clip-path-3"><rect class="cls-1" x="-472" y="-522" width="1440" height="2404"/></clipPath></defs><title>Sin tiÌtulo-1</title><g class="cls-3"><g class="cls-4"><g class="cls-5"><rect class="cls-6" x="2" y="3" width="28.49" height="25.03"/></g></g></g></svg>