<svg id="Capa_1" data-name="Capa 1" xmlns="http://www.w3.org/2000/svg" xmlns:xlink="http://www.w3.org/1999/xlink" viewBox="0 0 32 32"><defs><style>.cls-1,.cls-2{fill:none;}.cls-2{clip-rule:evenodd;}.cls-3{clip-path:url(#clip-path);}.cls-4{clip-path:url(#clip-path-2);}.cls-5{clip-path:url(#clip-path-3);}.cls-6{fill:#979797;}</style><clipPath id="clip-path"><rect class="cls-1" width="32" height="32"/></clipPath><clipPath id="clip-path-2"><path class="cls-2" d="M13,9.76h0a3.1,3.1,0,0,0-1.93,1.42,3.33,3.33,0,0,0-.24,2.2,10.37,10.37,0,0,0,2.87,4.81,10.09,10.09,0,0,0,4.75,2.95,3.25,3.25,0,0,0,2.23-.23,3.34,3.34,0,0,0,1.54-2,.22.22,0,0,0-.09-.26l-3.16-2h0v0h0l0,0h-.11a.21.21,0,0,0-.1,0v0l0,0-.82.81a8.07,8.07,0,0,1-3.39-3.41l.75-.76,0,0h0v0h0v0h0v0h0v0h0l0,0h0L13.26,9.86a.21.21,0,0,0-.18-.1ZM7,15.5a9.49,9.49,0,1,1,4.43,8L7.78,24.8a.22.22,0,0,1-.28-.27L8.62,20.8A9.52,9.52,0,0,1,7,15.5Z"/></clipPath><clipPath id="clip-path-3"><rect class="cls-1" x="-577" y="-522" width="1440" height="2404"/></clipPath></defs><title>Sin tiÌtulo-1</title><g class="cls-3"><g class="cls-4"><g class="cls-5"><rect class="cls-6" x="2" y="1" width="29" height="29"/></g></g></g></svg>